name analog
datacolumns 19
datarows 41
range 0.2295 0.2495
endheader
time	ground_force_vx	ground_force_vy	ground_force_vz	ground_force_px	ground_force_py	ground_force_pz	l_ground_force_vx	l_ground_force_vy	l_ground_force_vz	l_ground_force_px	l_ground_force_py	l_ground_force_pz	ground_torque_x	ground_torque_y	ground_torque_z	l_ground_torque_x	l_ground_torque_y	l_ground_torque_z
0.2295	-0.0	-0.0	-0.0	-7.880387306213379	6.803463459014893	-775.2291870117188	6.653308868408203	-3.5625205039978027	-60.170040130615234	-0.0	-0.0	-0.0	-0.0	-0.0	-0.0	24159.919921875	-12201.5478515625	3652.503662109375
0.23	-0.0	-0.0	-0.0	-7.880325794219971	7.456601619720459	-774.8782958984375	6.712523460388184	-3.150213718414306	-56.91083908081055	-0.0	-0.0	-0.0	-0.0	-0.0	-0.0	23100.173828125	-11888.7099609375	3563.73291015625
0.2305	-0.0	-0.0	-0.0	-7.671499729156494	7.159639358520508	-774.9937133789062	6.682841300964356	-3.091372013092041	-54.816802978515625	-0.0	-0.0	-0.0	-0.0	-0.0	-0.0	22347.6484375	-11425.505859375	3474.66015625
0.231	-0.0	-0.0	-0.0	-7.850113391876221	7.042123794555664	-774.0537719726562	6.682887077331543	-2.7968454360961914	-52.95459365844727	-0.0	-0.0	-0.0	-0.0	-0.0	-0.0	21361.8125	-10960.59765625	3286.860107421875
0.2315	-0.0	-0.0	-0.0	-7.345161437988281	7.13043212890625	-774.8729248046875	6.298465728759766	-2.76729416847229	-51.79091644287109	-0.0	-0.0	-0.0	-0.0	-0.0	-0.0	20743.15625	-10458.740234375	3345.9169921875
0.232	-0.0	-0.0	-0.0	-7.078163623809815	7.249471664428711	-773.5802001953125	6.268655300140381	-2.620150089263916	-48.99784469604492	-0.0	-0.0	-0.0	-0.0	-0.0	-0.0	19896.94140625	-10112.2802734375	3158.089111328125
0.2325	-0.0	-0.0	-0.0	-6.957713127136231	6.477985858917236	-771.7009887695312	5.796156406402588	-2.5025436878204346	-49.580665588378906	-0.0	-0.0	-0.0	-0.0	-0.0	-0.0	19384.6328125	-9943.93359375	3058.8828125
0.233	-0.0	-0.0	-0.0	-7.07841157913208	6.446577548980713	-768.6383056640625	5.914295673370361	-2.708047151565552	-46.90461349487305	-0.0	-0.0	-0.0	-0.0	-0.0	-0.0	19064.279296875	-9531.09765625	2841.33740234375
0.2335	-0.0	-0.0	-0.0	-6.662539005279541	5.556983947753906	-768.4111938476562	5.588779449462891	-2.179859161376953	-47.36761474609375	-0.0	-0.0	-0.0	-0.0	-0.0	-0.0	18551.943359375	-9258.4765625	2742.453369140625
0.234	-0.0	-0.0	-0.0	-6.602579593658447	4.991302490234375	-767.3409423828125	5.352411270141602	-2.8547680377960205	-45.741153717041016	-0.0	-0.0	-0.0	-0.0	-0.0	-0.0	18477.138671875	-9252.1787109375	2781.54833984375
0.23450000000000001	-0.0	-0.0	-0.0	-6.927244663238525	4.308328628540039	-765.9367065429688	5.3524370193481445	-2.913303852081299	-44.459503173828125	-0.0	-0.0	-0.0	-0.0	-0.0	-0.0	18105.53125	-8942.5556640625	2742.119873046875
0.23500000000000001	-0.0	-0.0	-0.0	-6.218166828155518	4.009681224822998	-765.2310180664062	4.879860877990723	-2.472243070602417	-42.71388626098633	-0.0	-0.0	-0.0	-0.0	-0.0	-0.0	17596.181640625	-8620.671875	2633.22509765625
0.23550000000000001	-0.0	-0.0	-0.0	-6.541239261627197	3.000291585922241	-766.4005126953125	4.850107192993164	-2.619046926498413	-42.945648193359375	-0.0	-0.0	-0.0	-0.0	-0.0	-0.0	17163.998046875	-8562.5048828125	2563.87744140625
0.23600000000000002	-0.0	-0.0	-0.0	-7.017438888549805	1.993757247924805	-766.1668090820312	4.229175567626953	-2.266610622406006	-42.47517013549805	-0.0	-0.0	-0.0	-0.0	-0.0	-0.0	16747.384765625	-8306.6728515625	2622.54541015625
0.23650000000000002	-0.0	-0.0	-0.0	-6.6893157958984375	1.9925408363342283	-767.203125	4.643931865692139	-2.4996583461761475	-40.61521530151367	-0.0	-0.0	-0.0	-0.0	-0.0	-0.0	16495.609375	-8090.76318359375	2524.111328125
0.23700000000000002	-0.0	-0.0	-0.0	-6.692370414733887	1.843082070350647	-767.23291015625	4.761585235595703	-2.149545669555664	-39.33622741699219	-0.0	-0.0	-0.0	-0.0	-0.0	-0.0	15727.7470703125	-7677.423828125	2534.301025390625
0.23750000000000002	-0.0	-0.0	-0.0	-6.689118385314941	1.725412368774414	-768.1531372070312	4.435539245605469	-2.150815963745117	-38.76073455810547	-0.0	-0.0	-0.0	-0.0	-0.0	-0.0	15508.03515625	-7637.46484375	2642.290771484375
0.23800000000000002	-0.0	-0.0	-0.0	-6.7496724128723145	1.308423638343811	-769.6991577148438	4.849074840545654	-2.3547987937927246	-36.086055755615234	-0.0	-0.0	-0.0	-0.0	-0.0	-0.0	14987.39453125	-7382.6318359375	2712.765625
0.23850000000000002	-0.0	-0.0	-0.0	-7.313384532928467	1.3957509994506836	-770.8641357421875	5.1752800941467285	-2.2963638305664062	-35.50089263916016	-0.0	-0.0	-0.0	-0.0	-0.0	-0.0	14411.931640625	-7033.55908203125	2869.973388671875
0.23900000000000002	-0.0	-0.0	-0.0	-7.404472351074219	1.42608642578125	-773.464111328125	5.675928115844727	-2.324767589569092	-34.4537239074707	-0.0	-0.0	-0.0	-0.0	-0.0	-0.0	14083.8349609375	-6756.7216796875	2959.265625
0.23950000000000002	-0.0	-0.0	-0.0	-7.791738986968994	2.019601821899414	-776.65087890625	5.46995210647583	-2.239657402038574	-32.813804626464844	-0.0	-0.0	-0.0	-0.0	-0.0	-0.0	13198.6025390625	-6594.09423828125	3058.71728515625
0.24	-0.0	-0.0	-0.0	-8.26611614227295	2.700003862380981	-778.5291748046875	5.854911804199219	-2.204563617706299	-32.115074157714844	-0.0	-0.0	-0.0	-0.0	-0.0	-0.0	12732.880859375	-6241.55224609375	3039.4189453125
0.2405	-0.0	-0.0	-0.0	-8.17458724975586	2.6411616802215576	-778.3148803710938	5.854911804199219	-1.8866592645645144	-29.55906867980957	-0.0	-0.0	-0.0	-0.0	-0.0	-0.0	12141.8486328125	-6165.44970703125	3069.17578125
0.241	-0.0	-0.0	-0.0	-8.653419494628906	1.810747027397156	-779.4681396484375	5.796415328979492	-1.7984386682510376	-28.74934959411621	-0.0	-0.0	-0.0	-0.0	-0.0	-0.0	11608.314453125	-5819.89013671875	3117.743896484375
0.2415	-0.0	-0.0	-0.0	-9.040821075439451	1.520148515701294	-780.4164428710938	5.941582202911377	-1.7383475303649902	-27.23382568359375	-0.0	-0.0	-0.0	-0.0	-0.0	-0.0	11183.861328125	-5599.443359375	3128.623779296875
0.242	-0.0	-0.0	-0.0	-9.537792205810549	1.2249822616577148	-782.5358276367188	5.91548490524292	-1.826741337776184	-27.693721771240234	-0.0	-0.0	-0.0	-0.0	-0.0	-0.0	10947.51953125	-5446.1845703125	3276.1962890625
0.2425	-0.0	-0.0	-0.0	-9.51755714416504	0.8580580949783325	-780.1640014648438	6.324326515197754	-1.5294320583343506	-25.156435012817383	-0.0	-0.0	-0.0	-0.0	-0.0	-0.0	10529.8603515625	-5344.779296875	3148.49755859375
0.243	-0.0	-0.0	-0.0	-8.929341316223145	0.3258911371231079	-781.3444213867188	6.125712394714356	-1.76410973072052	-25.120540618896484	-0.0	-0.0	-0.0	-0.0	-0.0	-0.0	10235.1484375	-5086.341796875	3120.193603515625
0.2435	-0.0	-0.0	-0.0	-8.770451545715332	0.0028702467679977	-781.7315063476562	5.946065425872803	-1.7313179969787598	-24.330638885498047	-0.0	-0.0	-0.0	-0.0	-0.0	-0.0	9911.6416015625	-5094.96923828125	3029.521240234375
0.244	-0.0	-0.0	-0.0	-8.597864151000977	0.0306889116764068	-781.587158203125	5.821996688842773	-1.6528342962265017	-23.403032302856445	-0.0	-0.0	-0.0	-0.0	-0.0	-0.0	10029.505859375	-4925.91796875	2921.80322265625
0.2445	-0.0	-0.0	-0.0	-8.385787963867188	-0.565507709980011	-781.4653930664062	5.857529163360596	-1.8798527717590328	-24.550128936767575	-0.0	-0.0	-0.0	-0.0	-0.0	-0.0	9822.0341796875	-4847.19580078125	2823.5224609375
0.245	-0.0	-0.0	-0.0	-7.616840362548828	-1.1894569396972656	-782.9749145507812	5.494616508483887	-1.940362930297852	-24.21142196655273	-0.0	-0.0	-0.0	-0.0	-0.0	-0.0	9744.392578125	-5003.68017578125	2840.970703125
0.2455	-0.0	-0.0	-0.0	-7.198478221893311	-1.2235195636749268	-785.2152709960938	5.142412185668945	-1.7084861993789673	-24.429540634155277	-0.0	-0.0	-0.0	-0.0	-0.0	-0.0	10121.65625	-5084.98095703125	2663.72607421875
0.246	-0.0	-0.0	-0.0	-6.807506561279297	-1.2444853782653809	-785.3500366210938	4.582420349121094	-1.909772515296936	-23.307323455810547	-0.0	-0.0	-0.0	-0.0	-0.0	-0.0	9849.4267578125	-5014.3369140625	2452.730224609375
0.2465	-0.0	-0.0	-0.0	-6.718223571777344	-1.093525767326355	-786.8576049804688	4.61598014831543	-1.474032282829285	-23.28469657897949	-0.0	-0.0	-0.0	-0.0	-0.0	-0.0	10128.1806640625	-5088.7060546875	2376.03173828125
0.247	-0.0	-0.0	-0.0	-6.392232418060303	-0.9459793567657472	-787.1438598632812	4.612960815429688	-1.5897903442382812	-23.87510871887207	-0.0	-0.0	-0.0	-0.0	-0.0	-0.0	10032.5712890625	-4803.94482421875	2364.717529296875
0.2475	-0.0	-0.0	-0.0	-6.206509113311768	-0.6093722581863403	-786.9137573242188	4.6097564697265625	-1.6476080417633057	-23.996095657348636	-0.0	-0.0	-0.0	-0.0	-0.0	-0.0	9855.9091796875	-4992.4951171875	2344.176025390625
0.248	-0.0	-0.0	-0.0	-5.895389080047607	-1.0348622798919678	-787.7139892578125	4.9097676277160645	-1.2125602960586548	-24.21219062805176	-0.0	-0.0	-0.0	-0.0	-0.0	-0.0	10007.2041015625	-4845.86083984375	2525.73486328125
0.2485	-0.0	-0.0	-0.0	-6.597720623016357	-1.418379306793213	-789.0192260742188	5.203225612640381	-1.586383819580078	-25.35372734069824	-0.0	-0.0	-0.0	-0.0	-0.0	-0.0	9878.8369140625	-4809.34814453125	2503.057861328125
0.249	-0.0	-0.0	-0.0	-6.721836090087891	-1.4531766176223757	-789.2342529296875	5.35338306427002	-1.344979763031006	-24.118993759155277	-0.0	-0.0	-0.0	-0.0	-0.0	-0.0	10189.5458984375	-5105.57763671875	2653.84326171875
0.2495	-0.0	-0.0	-0.0	-7.12875509262085	-1.8987557888031008	-787.2700805664062	5.530840873718262	-1.5861998796463013	-24.44061279296875	-0.0	-0.0	-0.0	-0.0	-0.0	-0.0	10444.201171875	-5254.6796875	2899.110595703125
